<mxfile host="app.diagrams.net" agent="Mozilla/5.0 (Windows NT 10.0; Win64; x64) AppleWebKit/537.36 (KHTML, like Gecko) Chrome/139.0.0.0 Safari/537.36" version="28.1.1" pages="2">
  <diagram name="Page-1" id="EVPBUfxvZ5kNxR8Jf_LY">
    <mxGraphModel dx="3126" dy="1843" grid="1" gridSize="10" guides="1" tooltips="1" connect="1" arrows="1" fold="1" page="1" pageScale="1" pageWidth="850" pageHeight="1100" math="0" shadow="0">
      <root>
        <mxCell id="0" />
        <mxCell id="1" parent="0" />
        <mxCell id="P8C8cs-CNO5VZVuL6oD0-1" style="edgeStyle=orthogonalEdgeStyle;curved=1;rounded=0;orthogonalLoop=1;jettySize=auto;html=1;endArrow=none;endFill=0;fontFamily=Courier New;" parent="1" source="P8C8cs-CNO5VZVuL6oD0-7" target="P8C8cs-CNO5VZVuL6oD0-28" edge="1">
          <mxGeometry relative="1" as="geometry" />
        </mxCell>
        <mxCell id="P8C8cs-CNO5VZVuL6oD0-2" style="edgeStyle=orthogonalEdgeStyle;curved=1;rounded=0;orthogonalLoop=1;jettySize=auto;html=1;entryX=0.5;entryY=1;entryDx=0;entryDy=0;endArrow=none;endFill=0;fontFamily=Courier New;" parent="1" source="P8C8cs-CNO5VZVuL6oD0-7" target="P8C8cs-CNO5VZVuL6oD0-29" edge="1">
          <mxGeometry relative="1" as="geometry" />
        </mxCell>
        <mxCell id="P8C8cs-CNO5VZVuL6oD0-3" style="edgeStyle=orthogonalEdgeStyle;curved=1;rounded=0;orthogonalLoop=1;jettySize=auto;html=1;entryX=0.5;entryY=1;entryDx=0;entryDy=0;endArrow=none;endFill=0;fontFamily=Courier New;" parent="1" source="P8C8cs-CNO5VZVuL6oD0-7" target="P8C8cs-CNO5VZVuL6oD0-30" edge="1">
          <mxGeometry relative="1" as="geometry" />
        </mxCell>
        <mxCell id="P8C8cs-CNO5VZVuL6oD0-4" style="edgeStyle=orthogonalEdgeStyle;rounded=0;orthogonalLoop=1;jettySize=auto;html=1;entryX=0;entryY=0.5;entryDx=0;entryDy=0;fontFamily=Courier New;" parent="1" source="P8C8cs-CNO5VZVuL6oD0-7" target="P8C8cs-CNO5VZVuL6oD0-40" edge="1">
          <mxGeometry relative="1" as="geometry" />
        </mxCell>
        <mxCell id="P8C8cs-CNO5VZVuL6oD0-5" style="edgeStyle=orthogonalEdgeStyle;curved=1;rounded=0;orthogonalLoop=1;jettySize=auto;html=1;fontFamily=Courier New;" parent="1" source="P8C8cs-CNO5VZVuL6oD0-7" target="P8C8cs-CNO5VZVuL6oD0-50" edge="1">
          <mxGeometry relative="1" as="geometry">
            <Array as="points">
              <mxPoint x="-30" y="320" />
            </Array>
          </mxGeometry>
        </mxCell>
        <mxCell id="P8C8cs-CNO5VZVuL6oD0-6" style="edgeStyle=orthogonalEdgeStyle;curved=1;rounded=0;orthogonalLoop=1;jettySize=auto;html=1;fontFamily=Courier New;" parent="1" source="P8C8cs-CNO5VZVuL6oD0-7" target="P8C8cs-CNO5VZVuL6oD0-56" edge="1">
          <mxGeometry relative="1" as="geometry">
            <Array as="points">
              <mxPoint x="-20" y="350" />
              <mxPoint x="180" y="350" />
            </Array>
          </mxGeometry>
        </mxCell>
        <mxCell id="P8C8cs-CNO5VZVuL6oD0-145" style="edgeStyle=orthogonalEdgeStyle;curved=1;rounded=0;orthogonalLoop=1;jettySize=auto;html=1;" parent="1" source="P8C8cs-CNO5VZVuL6oD0-7" target="P8C8cs-CNO5VZVuL6oD0-191" edge="1">
          <mxGeometry relative="1" as="geometry">
            <mxPoint x="-50" y="80" as="targetPoint" />
          </mxGeometry>
        </mxCell>
        <mxCell id="P8C8cs-CNO5VZVuL6oD0-174" style="edgeStyle=orthogonalEdgeStyle;curved=1;rounded=0;orthogonalLoop=1;jettySize=auto;html=1;entryX=0.5;entryY=1;entryDx=0;entryDy=0;" parent="1" source="P8C8cs-CNO5VZVuL6oD0-7" target="P8C8cs-CNO5VZVuL6oD0-89" edge="1">
          <mxGeometry relative="1" as="geometry">
            <Array as="points">
              <mxPoint x="-60" y="520" />
              <mxPoint x="-310" y="520" />
              <mxPoint x="-310" y="490" />
              <mxPoint x="-410" y="490" />
            </Array>
          </mxGeometry>
        </mxCell>
        <mxCell id="P8C8cs-CNO5VZVuL6oD0-190" style="edgeStyle=orthogonalEdgeStyle;curved=1;rounded=0;orthogonalLoop=1;jettySize=auto;html=1;entryX=0;entryY=0.5;entryDx=0;entryDy=0;" parent="1" source="P8C8cs-CNO5VZVuL6oD0-7" target="P8C8cs-CNO5VZVuL6oD0-187" edge="1">
          <mxGeometry relative="1" as="geometry" />
        </mxCell>
        <mxCell id="P8C8cs-CNO5VZVuL6oD0-202" style="edgeStyle=orthogonalEdgeStyle;curved=1;rounded=0;orthogonalLoop=1;jettySize=auto;html=1;entryX=0.5;entryY=1;entryDx=0;entryDy=0;" parent="1" source="P8C8cs-CNO5VZVuL6oD0-7" target="P8C8cs-CNO5VZVuL6oD0-200" edge="1">
          <mxGeometry relative="1" as="geometry" />
        </mxCell>
        <mxCell id="P8C8cs-CNO5VZVuL6oD0-208" style="edgeStyle=orthogonalEdgeStyle;curved=1;rounded=0;orthogonalLoop=1;jettySize=auto;html=1;entryX=0.5;entryY=0;entryDx=0;entryDy=0;" parent="1" source="P8C8cs-CNO5VZVuL6oD0-7" target="P8C8cs-CNO5VZVuL6oD0-209" edge="1">
          <mxGeometry relative="1" as="geometry">
            <mxPoint x="-70" y="670" as="targetPoint" />
          </mxGeometry>
        </mxCell>
        <mxCell id="P8C8cs-CNO5VZVuL6oD0-7" value="&lt;span&gt;&lt;b&gt;User&lt;/b&gt;&lt;/span&gt;" style="whiteSpace=wrap;html=1;align=center;rounded=1;glass=0;shadow=0;fontFamily=Courier New;fillColor=#e51400;strokeColor=#B20000;fontColor=#ffffff;" parent="1" vertex="1">
          <mxGeometry x="-110" y="460" width="100" height="40" as="geometry" />
        </mxCell>
        <mxCell id="P8C8cs-CNO5VZVuL6oD0-8" style="edgeStyle=orthogonalEdgeStyle;curved=1;rounded=0;orthogonalLoop=1;jettySize=auto;html=1;entryX=1;entryY=0.5;entryDx=0;entryDy=0;endArrow=none;endFill=0;fontFamily=Courier New;" parent="1" source="P8C8cs-CNO5VZVuL6oD0-12" target="P8C8cs-CNO5VZVuL6oD0-45" edge="1">
          <mxGeometry relative="1" as="geometry">
            <Array as="points">
              <mxPoint x="-490" y="710" />
              <mxPoint x="-550" y="710" />
              <mxPoint x="-550" y="660" />
            </Array>
          </mxGeometry>
        </mxCell>
        <mxCell id="P8C8cs-CNO5VZVuL6oD0-10" style="edgeStyle=orthogonalEdgeStyle;curved=1;rounded=0;orthogonalLoop=1;jettySize=auto;html=1;entryX=1;entryY=0.5;entryDx=0;entryDy=0;endArrow=none;endFill=0;fontFamily=Courier New;" parent="1" source="P8C8cs-CNO5VZVuL6oD0-12" target="P8C8cs-CNO5VZVuL6oD0-49" edge="1">
          <mxGeometry relative="1" as="geometry">
            <Array as="points">
              <mxPoint x="-560" y="920" />
              <mxPoint x="-580" y="920" />
              <mxPoint x="-580" y="970" />
            </Array>
          </mxGeometry>
        </mxCell>
        <mxCell id="P8C8cs-CNO5VZVuL6oD0-138" style="edgeStyle=orthogonalEdgeStyle;curved=1;rounded=0;orthogonalLoop=1;jettySize=auto;html=1;endArrow=none;endFill=0;entryX=0;entryY=0.5;entryDx=0;entryDy=0;" parent="1" source="P8C8cs-CNO5VZVuL6oD0-12" target="P8C8cs-CNO5VZVuL6oD0-181" edge="1">
          <mxGeometry relative="1" as="geometry">
            <mxPoint x="-70" y="860.0000000000005" as="targetPoint" />
          </mxGeometry>
        </mxCell>
        <mxCell id="P8C8cs-CNO5VZVuL6oD0-12" value="Alumni" style="whiteSpace=wrap;html=1;align=center;fontFamily=Courier New;rounded=1;fillColor=#e51400;fontColor=#ffffff;strokeColor=#B20000;" parent="1" vertex="1">
          <mxGeometry x="-580" y="850" width="100" height="40" as="geometry" />
        </mxCell>
        <mxCell id="P8C8cs-CNO5VZVuL6oD0-13" value="" style="edgeStyle=orthogonalEdgeStyle;curved=1;rounded=0;orthogonalLoop=1;jettySize=auto;html=1;endArrow=none;endFill=0;fontFamily=Courier New;" parent="1" source="P8C8cs-CNO5VZVuL6oD0-16" target="P8C8cs-CNO5VZVuL6oD0-18" edge="1">
          <mxGeometry relative="1" as="geometry" />
        </mxCell>
        <mxCell id="P8C8cs-CNO5VZVuL6oD0-14" value="" style="edgeStyle=orthogonalEdgeStyle;curved=1;rounded=0;orthogonalLoop=1;jettySize=auto;html=1;fontFamily=Courier New;" parent="1" source="P8C8cs-CNO5VZVuL6oD0-16" target="P8C8cs-CNO5VZVuL6oD0-19" edge="1">
          <mxGeometry relative="1" as="geometry" />
        </mxCell>
        <mxCell id="P8C8cs-CNO5VZVuL6oD0-15" value="" style="edgeStyle=orthogonalEdgeStyle;curved=1;rounded=0;orthogonalLoop=1;jettySize=auto;html=1;exitX=0.25;exitY=0;exitDx=0;exitDy=0;endArrow=none;endFill=0;fontFamily=Courier New;" parent="1" source="P8C8cs-CNO5VZVuL6oD0-7" target="P8C8cs-CNO5VZVuL6oD0-20" edge="1">
          <mxGeometry relative="1" as="geometry">
            <Array as="points">
              <mxPoint x="-85" y="370" />
            </Array>
          </mxGeometry>
        </mxCell>
        <mxCell id="P8C8cs-CNO5VZVuL6oD0-16" value="Name" style="ellipse;whiteSpace=wrap;html=1;align=center;fontFamily=Courier New;" parent="1" vertex="1">
          <mxGeometry x="-240" y="410" width="100" height="40" as="geometry" />
        </mxCell>
        <mxCell id="P8C8cs-CNO5VZVuL6oD0-17" style="edgeStyle=orthogonalEdgeStyle;curved=1;rounded=0;orthogonalLoop=1;jettySize=auto;html=1;entryX=0.45;entryY=1.021;entryDx=0;entryDy=0;entryPerimeter=0;endArrow=none;endFill=0;fontFamily=Courier New;" parent="1" source="P8C8cs-CNO5VZVuL6oD0-7" target="P8C8cs-CNO5VZVuL6oD0-16" edge="1">
          <mxGeometry relative="1" as="geometry" />
        </mxCell>
        <mxCell id="P8C8cs-CNO5VZVuL6oD0-18" value="first_Name" style="ellipse;whiteSpace=wrap;html=1;align=center;fontFamily=Courier New;" parent="1" vertex="1">
          <mxGeometry x="-350" y="340" width="100" height="40" as="geometry" />
        </mxCell>
        <mxCell id="P8C8cs-CNO5VZVuL6oD0-19" value="last_Name" style="ellipse;whiteSpace=wrap;html=1;align=center;fontFamily=Courier New;" parent="1" vertex="1">
          <mxGeometry x="-350" y="450" width="100" height="40" as="geometry" />
        </mxCell>
        <mxCell id="P8C8cs-CNO5VZVuL6oD0-20" value="email" style="ellipse;whiteSpace=wrap;html=1;align=center;fontFamily=Courier New;" parent="1" vertex="1">
          <mxGeometry x="-240" y="350" width="100" height="40" as="geometry" />
        </mxCell>
        <mxCell id="P8C8cs-CNO5VZVuL6oD0-21" style="edgeStyle=orthogonalEdgeStyle;curved=1;rounded=0;orthogonalLoop=1;jettySize=auto;html=1;entryX=0.5;entryY=1;entryDx=0;entryDy=0;endArrow=none;endFill=0;fontFamily=Courier New;" parent="1" source="P8C8cs-CNO5VZVuL6oD0-24" target="P8C8cs-CNO5VZVuL6oD0-27" edge="1">
          <mxGeometry relative="1" as="geometry" />
        </mxCell>
        <mxCell id="P8C8cs-CNO5VZVuL6oD0-23" style="edgeStyle=orthogonalEdgeStyle;curved=1;rounded=0;orthogonalLoop=1;jettySize=auto;html=1;entryX=1;entryY=0.5;entryDx=0;entryDy=0;endArrow=none;endFill=0;fontFamily=Courier New;" parent="1" source="P8C8cs-CNO5VZVuL6oD0-24" target="P8C8cs-CNO5VZVuL6oD0-25" edge="1">
          <mxGeometry relative="1" as="geometry">
            <Array as="points">
              <mxPoint x="-210" y="210" />
            </Array>
          </mxGeometry>
        </mxCell>
        <mxCell id="P8C8cs-CNO5VZVuL6oD0-24" value="address" style="ellipse;shape=doubleEllipse;margin=3;whiteSpace=wrap;html=1;align=center;fontFamily=Courier New;" parent="1" vertex="1">
          <mxGeometry x="-240" y="290" width="100" height="40" as="geometry" />
        </mxCell>
        <mxCell id="P8C8cs-CNO5VZVuL6oD0-25" value="city" style="ellipse;whiteSpace=wrap;html=1;align=center;fontFamily=Courier New;" parent="1" vertex="1">
          <mxGeometry x="-350" y="190" width="100" height="40" as="geometry" />
        </mxCell>
        <mxCell id="P8C8cs-CNO5VZVuL6oD0-26" value="zip" style="ellipse;whiteSpace=wrap;html=1;align=center;fontFamily=Courier New;" parent="1" vertex="1">
          <mxGeometry x="-350" y="140" width="100" height="40" as="geometry" />
        </mxCell>
        <mxCell id="P8C8cs-CNO5VZVuL6oD0-27" value="district" style="ellipse;whiteSpace=wrap;html=1;align=center;fontFamily=Courier New;" parent="1" vertex="1">
          <mxGeometry x="-350" y="240" width="100" height="40" as="geometry" />
        </mxCell>
        <mxCell id="P8C8cs-CNO5VZVuL6oD0-28" value="nationality" style="ellipse;whiteSpace=wrap;html=1;align=center;fontFamily=Courier New;" parent="1" vertex="1">
          <mxGeometry y="380" width="100" height="40" as="geometry" />
        </mxCell>
        <mxCell id="P8C8cs-CNO5VZVuL6oD0-29" value="date_of_birth" style="ellipse;whiteSpace=wrap;html=1;align=center;fontFamily=Courier New;" parent="1" vertex="1">
          <mxGeometry x="110" y="380" width="100" height="40" as="geometry" />
        </mxCell>
        <mxCell id="P8C8cs-CNO5VZVuL6oD0-30" value="age" style="ellipse;whiteSpace=wrap;html=1;align=center;dashed=1;fontFamily=Courier New;" parent="1" vertex="1">
          <mxGeometry x="240" y="380" width="100" height="40" as="geometry" />
        </mxCell>
        <mxCell id="P8C8cs-CNO5VZVuL6oD0-31" style="edgeStyle=orthogonalEdgeStyle;curved=1;rounded=0;orthogonalLoop=1;jettySize=auto;html=1;entryX=0.57;entryY=-0.025;entryDx=0;entryDy=0;entryPerimeter=0;endArrow=none;endFill=0;fontFamily=Courier New;" parent="1" source="P8C8cs-CNO5VZVuL6oD0-26" target="P8C8cs-CNO5VZVuL6oD0-24" edge="1">
          <mxGeometry relative="1" as="geometry" />
        </mxCell>
        <mxCell id="P8C8cs-CNO5VZVuL6oD0-175" style="edgeStyle=orthogonalEdgeStyle;curved=1;rounded=0;orthogonalLoop=1;jettySize=auto;html=1;entryX=1;entryY=0.5;entryDx=0;entryDy=0;" parent="1" source="P8C8cs-CNO5VZVuL6oD0-35" target="P8C8cs-CNO5VZVuL6oD0-181" edge="1">
          <mxGeometry relative="1" as="geometry">
            <mxPoint x="110" y="860" as="targetPoint" />
          </mxGeometry>
        </mxCell>
        <mxCell id="P8C8cs-CNO5VZVuL6oD0-35" value="Student" style="whiteSpace=wrap;html=1;align=center;fontFamily=Courier New;rounded=1;fillColor=#e51400;fontColor=#ffffff;strokeColor=#B20000;" parent="1" vertex="1">
          <mxGeometry x="490" y="840" width="100" height="40" as="geometry" />
        </mxCell>
        <mxCell id="P8C8cs-CNO5VZVuL6oD0-38" style="edgeStyle=orthogonalEdgeStyle;rounded=0;orthogonalLoop=1;jettySize=auto;html=1;entryX=0.5;entryY=0;entryDx=0;entryDy=0;fontFamily=Courier New;" parent="1" source="P8C8cs-CNO5VZVuL6oD0-40" target="P8C8cs-CNO5VZVuL6oD0-35" edge="1">
          <mxGeometry relative="1" as="geometry" />
        </mxCell>
        <mxCell id="P8C8cs-CNO5VZVuL6oD0-39" style="edgeStyle=orthogonalEdgeStyle;rounded=0;orthogonalLoop=1;jettySize=auto;html=1;entryX=0.5;entryY=0;entryDx=0;entryDy=0;fontFamily=Courier New;" parent="1" source="P8C8cs-CNO5VZVuL6oD0-40" target="P8C8cs-CNO5VZVuL6oD0-12" edge="1">
          <mxGeometry relative="1" as="geometry" />
        </mxCell>
        <mxCell id="P8C8cs-CNO5VZVuL6oD0-40" value="&lt;font style=&quot;font-size: 9px;&quot;&gt;isA&lt;/font&gt;" style="triangle;whiteSpace=wrap;html=1;rotation=90;horizontal=0;verticalAlign=top;fillColor=#60a917;fontColor=#ffffff;strokeColor=#2D7600;fontFamily=Courier New;" parent="1" vertex="1">
          <mxGeometry x="-78.75" y="525" width="37.5" height="50" as="geometry" />
        </mxCell>
        <mxCell id="P8C8cs-CNO5VZVuL6oD0-41" value="enrollment_year" style="ellipse;whiteSpace=wrap;html=1;align=center;fontFamily=Courier New;fontSize=12;" parent="1" vertex="1">
          <mxGeometry x="600" y="830" width="140" height="40" as="geometry" />
        </mxCell>
        <mxCell id="P8C8cs-CNO5VZVuL6oD0-42" value="student_id" style="ellipse;whiteSpace=wrap;html=1;align=center;fontFamily=Courier New;" parent="1" vertex="1">
          <mxGeometry x="600" y="780" width="100" height="40" as="geometry" />
        </mxCell>
        <mxCell id="P8C8cs-CNO5VZVuL6oD0-45" value="alumni_id" style="ellipse;whiteSpace=wrap;html=1;align=center;fontFamily=Courier New;" parent="1" vertex="1">
          <mxGeometry x="-730" y="840" width="100" height="40" as="geometry" />
        </mxCell>
        <mxCell id="P8C8cs-CNO5VZVuL6oD0-49" value="is_currently_abroad" style="ellipse;whiteSpace=wrap;html=1;align=center;fontFamily=Courier New;" parent="1" vertex="1">
          <mxGeometry x="-810" y="900" width="210" height="40" as="geometry" />
        </mxCell>
        <mxCell id="P8C8cs-CNO5VZVuL6oD0-50" value="gender" style="ellipse;whiteSpace=wrap;html=1;align=center;fontFamily=Courier New;" parent="1" vertex="1">
          <mxGeometry y="300" width="100" height="40" as="geometry" />
        </mxCell>
        <mxCell id="P8C8cs-CNO5VZVuL6oD0-53" value="degree_id" style="ellipse;whiteSpace=wrap;html=1;align=center;fontFamily=Courier New;fontSize=12;" parent="1" vertex="1">
          <mxGeometry x="-218.75" y="-40" width="140" height="40" as="geometry" />
        </mxCell>
        <mxCell id="P8C8cs-CNO5VZVuL6oD0-54" value="type" style="ellipse;whiteSpace=wrap;html=1;align=center;fontFamily=Courier New;fontSize=12;" parent="1" vertex="1">
          <mxGeometry x="-218.75" y="-90" width="140" height="40" as="geometry" />
        </mxCell>
        <mxCell id="P8C8cs-CNO5VZVuL6oD0-56" value="person_id" style="ellipse;whiteSpace=wrap;html=1;align=center;fontFamily=Courier New;" parent="1" vertex="1">
          <mxGeometry x="120" y="300" width="100" height="40" as="geometry" />
        </mxCell>
        <mxCell id="P8C8cs-CNO5VZVuL6oD0-70" value="news" style="whiteSpace=wrap;html=1;align=center;fontFamily=Courier New;fillColor=#e51400;fontColor=#ffffff;strokeColor=#B20000;" parent="1" vertex="1">
          <mxGeometry x="830" y="300" width="100" height="40" as="geometry" />
        </mxCell>
        <mxCell id="P8C8cs-CNO5VZVuL6oD0-71" style="edgeStyle=orthogonalEdgeStyle;curved=1;rounded=0;orthogonalLoop=1;jettySize=auto;html=1;entryX=0;entryY=0.5;entryDx=0;entryDy=0;" parent="1" source="P8C8cs-CNO5VZVuL6oD0-76" target="P8C8cs-CNO5VZVuL6oD0-130" edge="1">
          <mxGeometry relative="1" as="geometry" />
        </mxCell>
        <mxCell id="P8C8cs-CNO5VZVuL6oD0-72" style="edgeStyle=orthogonalEdgeStyle;curved=1;rounded=0;orthogonalLoop=1;jettySize=auto;html=1;entryX=0;entryY=0.5;entryDx=0;entryDy=0;" parent="1" source="P8C8cs-CNO5VZVuL6oD0-76" target="P8C8cs-CNO5VZVuL6oD0-128" edge="1">
          <mxGeometry relative="1" as="geometry">
            <Array as="points">
              <mxPoint x="490" y="365" />
              <mxPoint x="530" y="365" />
              <mxPoint x="530" y="375" />
            </Array>
          </mxGeometry>
        </mxCell>
        <mxCell id="P8C8cs-CNO5VZVuL6oD0-74" style="edgeStyle=orthogonalEdgeStyle;curved=1;rounded=0;orthogonalLoop=1;jettySize=auto;html=1;entryX=1;entryY=0.5;entryDx=0;entryDy=0;" parent="1" source="P8C8cs-CNO5VZVuL6oD0-76" target="P8C8cs-CNO5VZVuL6oD0-131" edge="1">
          <mxGeometry relative="1" as="geometry">
            <Array as="points">
              <mxPoint x="490" y="285" />
              <mxPoint x="710" y="285" />
              <mxPoint x="710" y="475" />
            </Array>
          </mxGeometry>
        </mxCell>
        <mxCell id="P8C8cs-CNO5VZVuL6oD0-222" style="edgeStyle=orthogonalEdgeStyle;curved=1;rounded=0;orthogonalLoop=1;jettySize=auto;html=1;entryX=0;entryY=0.5;entryDx=0;entryDy=0;" parent="1" source="P8C8cs-CNO5VZVuL6oD0-76" target="P8C8cs-CNO5VZVuL6oD0-217" edge="1">
          <mxGeometry relative="1" as="geometry" />
        </mxCell>
        <mxCell id="P8C8cs-CNO5VZVuL6oD0-76" value="awards&lt;br&gt;m:m" style="whiteSpace=wrap;html=1;align=center;fontFamily=Courier New;fillColor=#e51400;fontColor=#ffffff;strokeColor=#B20000;" parent="1" vertex="1">
          <mxGeometry x="425" y="305" width="130" height="40" as="geometry" />
        </mxCell>
        <mxCell id="P8C8cs-CNO5VZVuL6oD0-77" style="edgeStyle=orthogonalEdgeStyle;curved=1;rounded=0;orthogonalLoop=1;jettySize=auto;html=1;" parent="1" edge="1">
          <mxGeometry relative="1" as="geometry">
            <mxPoint x="-1150" y="280.07692307692287" as="sourcePoint" />
          </mxGeometry>
        </mxCell>
        <mxCell id="P8C8cs-CNO5VZVuL6oD0-78" style="edgeStyle=orthogonalEdgeStyle;curved=1;rounded=0;orthogonalLoop=1;jettySize=auto;html=1;entryX=1;entryY=0.5;entryDx=0;entryDy=0;" parent="1" edge="1">
          <mxGeometry relative="1" as="geometry">
            <Array as="points">
              <mxPoint x="-1170" y="280" />
              <mxPoint x="-1170" y="210" />
            </Array>
            <mxPoint x="-1150" y="280.07692307692287" as="sourcePoint" />
          </mxGeometry>
        </mxCell>
        <mxCell id="P8C8cs-CNO5VZVuL6oD0-80" style="edgeStyle=orthogonalEdgeStyle;curved=1;rounded=0;orthogonalLoop=1;jettySize=auto;html=1;entryX=1;entryY=0.5;entryDx=0;entryDy=0;" parent="1" edge="1">
          <mxGeometry relative="1" as="geometry">
            <Array as="points">
              <mxPoint x="-1150" y="110" />
            </Array>
            <mxPoint x="-1150" y="260" as="sourcePoint" />
          </mxGeometry>
        </mxCell>
        <mxCell id="P8C8cs-CNO5VZVuL6oD0-82" value="event" style="whiteSpace=wrap;html=1;align=center;fontFamily=Courier New;" parent="1" vertex="1">
          <mxGeometry x="-830" y="-90" width="100" height="40" as="geometry" />
        </mxCell>
        <mxCell id="P8C8cs-CNO5VZVuL6oD0-153" style="edgeStyle=orthogonalEdgeStyle;curved=1;rounded=0;orthogonalLoop=1;jettySize=auto;html=1;entryX=0;entryY=0.5;entryDx=0;entryDy=0;" parent="1" source="P8C8cs-CNO5VZVuL6oD0-88" target="P8C8cs-CNO5VZVuL6oD0-105" edge="1">
          <mxGeometry relative="1" as="geometry" />
        </mxCell>
        <mxCell id="P8C8cs-CNO5VZVuL6oD0-155" style="edgeStyle=orthogonalEdgeStyle;curved=1;rounded=0;orthogonalLoop=1;jettySize=auto;html=1;" parent="1" source="P8C8cs-CNO5VZVuL6oD0-88" target="P8C8cs-CNO5VZVuL6oD0-104" edge="1">
          <mxGeometry relative="1" as="geometry" />
        </mxCell>
        <mxCell id="P8C8cs-CNO5VZVuL6oD0-157" style="edgeStyle=orthogonalEdgeStyle;curved=1;rounded=0;orthogonalLoop=1;jettySize=auto;html=1;" parent="1" source="P8C8cs-CNO5VZVuL6oD0-88" target="P8C8cs-CNO5VZVuL6oD0-102" edge="1">
          <mxGeometry relative="1" as="geometry" />
        </mxCell>
        <mxCell id="P8C8cs-CNO5VZVuL6oD0-159" style="edgeStyle=orthogonalEdgeStyle;curved=1;rounded=0;orthogonalLoop=1;jettySize=auto;html=1;entryX=0;entryY=0.5;entryDx=0;entryDy=0;" parent="1" source="P8C8cs-CNO5VZVuL6oD0-88" target="P8C8cs-CNO5VZVuL6oD0-101" edge="1">
          <mxGeometry relative="1" as="geometry" />
        </mxCell>
        <mxCell id="P8C8cs-CNO5VZVuL6oD0-223" style="edgeStyle=orthogonalEdgeStyle;curved=1;rounded=0;orthogonalLoop=1;jettySize=auto;html=1;entryX=0.408;entryY=0.037;entryDx=0;entryDy=0;entryPerimeter=0;" parent="1" source="P8C8cs-CNO5VZVuL6oD0-88" target="P8C8cs-CNO5VZVuL6oD0-224" edge="1">
          <mxGeometry relative="1" as="geometry">
            <mxPoint x="780" y="99.99999999999955" as="targetPoint" />
          </mxGeometry>
        </mxCell>
        <mxCell id="P8C8cs-CNO5VZVuL6oD0-235" style="edgeStyle=orthogonalEdgeStyle;curved=1;rounded=0;orthogonalLoop=1;jettySize=auto;html=1;entryX=0.5;entryY=1;entryDx=0;entryDy=0;" parent="1" source="P8C8cs-CNO5VZVuL6oD0-88" target="P8C8cs-CNO5VZVuL6oD0-233" edge="1">
          <mxGeometry relative="1" as="geometry" />
        </mxCell>
        <mxCell id="P8C8cs-CNO5VZVuL6oD0-88" value="research" style="whiteSpace=wrap;html=1;align=center;fontFamily=Courier New;fillColor=#e51400;fontColor=#ffffff;strokeColor=#B20000;" parent="1" vertex="1">
          <mxGeometry x="155" y="10" width="130" height="40" as="geometry" />
        </mxCell>
        <mxCell id="P8C8cs-CNO5VZVuL6oD0-89" value="current_job" style="whiteSpace=wrap;html=1;align=center;fontFamily=Courier New;fillColor=#e51400;fontColor=#ffffff;strokeColor=#B20000;" parent="1" vertex="1">
          <mxGeometry x="-560" y="460" width="100" height="40" as="geometry" />
        </mxCell>
        <mxCell id="P8C8cs-CNO5VZVuL6oD0-90" value="listed_job" style="whiteSpace=wrap;html=1;align=center;fontFamily=Courier New;fillColor=#e51400;fontColor=#ffffff;strokeColor=#B20000;" parent="1" vertex="1">
          <mxGeometry x="-280" y="1100" width="100" height="40" as="geometry" />
        </mxCell>
        <mxCell id="P8C8cs-CNO5VZVuL6oD0-92" style="edgeStyle=orthogonalEdgeStyle;curved=1;rounded=0;orthogonalLoop=1;jettySize=auto;html=1;entryX=1;entryY=0.5;entryDx=0;entryDy=0;" parent="1" source="P8C8cs-CNO5VZVuL6oD0-95" edge="1">
          <mxGeometry relative="1" as="geometry">
            <Array as="points">
              <mxPoint x="70" y="-290" />
            </Array>
            <mxPoint x="20" y="-290" as="targetPoint" />
          </mxGeometry>
        </mxCell>
        <mxCell id="P8C8cs-CNO5VZVuL6oD0-93" style="edgeStyle=orthogonalEdgeStyle;curved=1;rounded=0;orthogonalLoop=1;jettySize=auto;html=1;entryX=1;entryY=0.5;entryDx=0;entryDy=0;" parent="1" source="P8C8cs-CNO5VZVuL6oD0-95" target="P8C8cs-CNO5VZVuL6oD0-121" edge="1">
          <mxGeometry relative="1" as="geometry">
            <Array as="points">
              <mxPoint x="90" y="-340" />
            </Array>
          </mxGeometry>
        </mxCell>
        <mxCell id="P8C8cs-CNO5VZVuL6oD0-94" style="edgeStyle=orthogonalEdgeStyle;curved=1;rounded=0;orthogonalLoop=1;jettySize=auto;html=1;" parent="1" source="P8C8cs-CNO5VZVuL6oD0-95" target="P8C8cs-CNO5VZVuL6oD0-124" edge="1">
          <mxGeometry relative="1" as="geometry">
            <Array as="points">
              <mxPoint x="150" y="-440" />
            </Array>
          </mxGeometry>
        </mxCell>
        <mxCell id="P8C8cs-CNO5VZVuL6oD0-237" style="edgeStyle=orthogonalEdgeStyle;curved=1;rounded=0;orthogonalLoop=1;jettySize=auto;html=1;entryX=1.012;entryY=0.713;entryDx=0;entryDy=0;entryPerimeter=0;" parent="1" source="P8C8cs-CNO5VZVuL6oD0-95" target="P8C8cs-CNO5VZVuL6oD0-238" edge="1">
          <mxGeometry relative="1" as="geometry">
            <mxPoint x="20.000000000010004" y="-500" as="targetPoint" />
            <Array as="points">
              <mxPoint x="33" y="-210" />
            </Array>
          </mxGeometry>
        </mxCell>
        <mxCell id="P8C8cs-CNO5VZVuL6oD0-95" value="uni" style="whiteSpace=wrap;html=1;align=center;fontFamily=Courier New;fillColor=#e51400;fontColor=#ffffff;strokeColor=#B20000;" parent="1" vertex="1">
          <mxGeometry x="70" y="-230" width="100" height="40" as="geometry" />
        </mxCell>
        <mxCell id="P8C8cs-CNO5VZVuL6oD0-99" value="socials&lt;br&gt;(weak)" style="whiteSpace=wrap;html=1;align=center;fontFamily=Courier New;fillColor=#e51400;fontColor=#ffffff;strokeColor=#B20000;" parent="1" vertex="1">
          <mxGeometry x="-10" y="720" width="100" height="40" as="geometry" />
        </mxCell>
        <mxCell id="P8C8cs-CNO5VZVuL6oD0-100" value="cv" style="whiteSpace=wrap;html=1;align=center;fontFamily=Courier New;" parent="1" vertex="1">
          <mxGeometry x="-950" y="310" width="100" height="40" as="geometry" />
        </mxCell>
        <mxCell id="P8C8cs-CNO5VZVuL6oD0-101" value="title" style="ellipse;whiteSpace=wrap;html=1;align=center;" parent="1" vertex="1">
          <mxGeometry x="315" y="-100" width="100" height="40" as="geometry" />
        </mxCell>
        <mxCell id="P8C8cs-CNO5VZVuL6oD0-102" value="publication_year" style="ellipse;whiteSpace=wrap;html=1;align=center;" parent="1" vertex="1">
          <mxGeometry x="315" y="-50" width="100" height="40" as="geometry" />
        </mxCell>
        <mxCell id="P8C8cs-CNO5VZVuL6oD0-103" value="&lt;u&gt;DOI&lt;/u&gt;" style="ellipse;whiteSpace=wrap;html=1;align=center;" parent="1" vertex="1">
          <mxGeometry x="315" width="100" height="40" as="geometry" />
        </mxCell>
        <mxCell id="P8C8cs-CNO5VZVuL6oD0-104" value="publication_type" style="ellipse;whiteSpace=wrap;html=1;align=center;" parent="1" vertex="1">
          <mxGeometry x="305" y="60" width="100" height="40" as="geometry" />
        </mxCell>
        <mxCell id="P8C8cs-CNO5VZVuL6oD0-105" value="field" style="ellipse;whiteSpace=wrap;html=1;align=center;" parent="1" vertex="1">
          <mxGeometry x="315" y="-150" width="100" height="40" as="geometry" />
        </mxCell>
        <mxCell id="P8C8cs-CNO5VZVuL6oD0-106" value="category" style="ellipse;whiteSpace=wrap;html=1;align=center;" parent="1" vertex="1">
          <mxGeometry x="950" y="310" width="100" height="40" as="geometry" />
        </mxCell>
        <mxCell id="P8C8cs-CNO5VZVuL6oD0-107" value="published_date" style="ellipse;whiteSpace=wrap;html=1;align=center;" parent="1" vertex="1">
          <mxGeometry x="950" y="260" width="100" height="40" as="geometry" />
        </mxCell>
        <mxCell id="P8C8cs-CNO5VZVuL6oD0-108" value="title" style="ellipse;whiteSpace=wrap;html=1;align=center;" parent="1" vertex="1">
          <mxGeometry x="950" y="210" width="100" height="40" as="geometry" />
        </mxCell>
        <mxCell id="P8C8cs-CNO5VZVuL6oD0-109" value="news_id" style="ellipse;whiteSpace=wrap;html=1;align=center;" parent="1" vertex="1">
          <mxGeometry x="955" y="365" width="100" height="40" as="geometry" />
        </mxCell>
        <mxCell id="P8C8cs-CNO5VZVuL6oD0-121" value="website_url" style="ellipse;whiteSpace=wrap;html=1;align=center;" parent="1" vertex="1">
          <mxGeometry x="-80" y="-360" width="100" height="40" as="geometry" />
        </mxCell>
        <mxCell id="P8C8cs-CNO5VZVuL6oD0-122" value="location" style="ellipse;whiteSpace=wrap;html=1;align=center;" parent="1" vertex="1">
          <mxGeometry x="-80" y="-410" width="100" height="40" as="geometry" />
        </mxCell>
        <mxCell id="P8C8cs-CNO5VZVuL6oD0-123" style="edgeStyle=orthogonalEdgeStyle;curved=1;rounded=0;orthogonalLoop=1;jettySize=auto;html=1;entryX=0.556;entryY=0.007;entryDx=0;entryDy=0;entryPerimeter=0;endArrow=none;endFill=0;" parent="1" source="P8C8cs-CNO5VZVuL6oD0-122" target="P8C8cs-CNO5VZVuL6oD0-95" edge="1">
          <mxGeometry relative="1" as="geometry" />
        </mxCell>
        <mxCell id="P8C8cs-CNO5VZVuL6oD0-124" value="name" style="ellipse;whiteSpace=wrap;html=1;align=center;" parent="1" vertex="1">
          <mxGeometry x="-80" y="-460" width="100" height="40" as="geometry" />
        </mxCell>
        <mxCell id="P8C8cs-CNO5VZVuL6oD0-125" value="platform_name" style="ellipse;whiteSpace=wrap;html=1;align=center;" parent="1" vertex="1">
          <mxGeometry x="140" y="730" width="100" height="40" as="geometry" />
        </mxCell>
        <mxCell id="P8C8cs-CNO5VZVuL6oD0-126" value="profile_url" style="ellipse;whiteSpace=wrap;html=1;align=center;" parent="1" vertex="1">
          <mxGeometry x="140" y="780" width="100" height="40" as="geometry" />
        </mxCell>
        <mxCell id="P8C8cs-CNO5VZVuL6oD0-127" value="social_id" style="ellipse;whiteSpace=wrap;html=1;align=center;" parent="1" vertex="1">
          <mxGeometry x="140" y="680" width="100" height="40" as="geometry" />
        </mxCell>
        <mxCell id="P8C8cs-CNO5VZVuL6oD0-128" value="award_name" style="ellipse;whiteSpace=wrap;html=1;align=center;" parent="1" vertex="1">
          <mxGeometry x="590" y="355" width="100" height="40" as="geometry" />
        </mxCell>
        <mxCell id="P8C8cs-CNO5VZVuL6oD0-129" value="award_date" style="ellipse;whiteSpace=wrap;html=1;align=center;" parent="1" vertex="1">
          <mxGeometry x="220" y="510" width="100" height="40" as="geometry" />
        </mxCell>
        <mxCell id="P8C8cs-CNO5VZVuL6oD0-130" value="award_id" style="ellipse;whiteSpace=wrap;html=1;align=center;" parent="1" vertex="1">
          <mxGeometry x="590" y="305" width="100" height="40" as="geometry" />
        </mxCell>
        <mxCell id="P8C8cs-CNO5VZVuL6oD0-131" value="type" style="ellipse;whiteSpace=wrap;html=1;align=center;" parent="1" vertex="1">
          <mxGeometry x="590" y="455" width="100" height="40" as="geometry" />
        </mxCell>
        <mxCell id="P8C8cs-CNO5VZVuL6oD0-221" style="edgeStyle=orthogonalEdgeStyle;curved=1;rounded=0;orthogonalLoop=1;jettySize=auto;html=1;entryX=0;entryY=1;entryDx=0;entryDy=0;" parent="1" source="P8C8cs-CNO5VZVuL6oD0-133" target="P8C8cs-CNO5VZVuL6oD0-218" edge="1">
          <mxGeometry relative="1" as="geometry" />
        </mxCell>
        <mxCell id="P8C8cs-CNO5VZVuL6oD0-133" value="scholarship" style="whiteSpace=wrap;html=1;align=center;fontFamily=Courier New;fillColor=#e51400;fontColor=#ffffff;strokeColor=#B20000;" parent="1" vertex="1">
          <mxGeometry x="710" y="590" width="100" height="40" as="geometry" />
        </mxCell>
        <mxCell id="P8C8cs-CNO5VZVuL6oD0-146" style="edgeStyle=orthogonalEdgeStyle;curved=1;rounded=0;orthogonalLoop=1;jettySize=auto;html=1;entryX=0.548;entryY=1.025;entryDx=0;entryDy=0;entryPerimeter=0;" parent="1" source="P8C8cs-CNO5VZVuL6oD0-63" target="P8C8cs-CNO5VZVuL6oD0-53" edge="1">
          <mxGeometry relative="1" as="geometry" />
        </mxCell>
        <mxCell id="P8C8cs-CNO5VZVuL6oD0-148" style="edgeStyle=orthogonalEdgeStyle;curved=1;rounded=0;orthogonalLoop=1;jettySize=auto;html=1;entryX=0.955;entryY=0.65;entryDx=0;entryDy=0;entryPerimeter=0;" parent="1" source="P8C8cs-CNO5VZVuL6oD0-63" target="P8C8cs-CNO5VZVuL6oD0-54" edge="1">
          <mxGeometry relative="1" as="geometry">
            <Array as="points">
              <mxPoint x="-40" y="-64" />
            </Array>
          </mxGeometry>
        </mxCell>
        <mxCell id="P8C8cs-CNO5VZVuL6oD0-156" style="edgeStyle=orthogonalEdgeStyle;curved=1;rounded=0;orthogonalLoop=1;jettySize=auto;html=1;entryX=0.37;entryY=0.108;entryDx=0;entryDy=0;entryPerimeter=0;" parent="1" source="P8C8cs-CNO5VZVuL6oD0-88" target="P8C8cs-CNO5VZVuL6oD0-103" edge="1">
          <mxGeometry relative="1" as="geometry" />
        </mxCell>
        <mxCell id="P8C8cs-CNO5VZVuL6oD0-195" style="edgeStyle=orthogonalEdgeStyle;curved=1;rounded=0;orthogonalLoop=1;jettySize=auto;html=1;entryX=0.5;entryY=1;entryDx=0;entryDy=0;" parent="1" source="P8C8cs-CNO5VZVuL6oD0-63" target="P8C8cs-CNO5VZVuL6oD0-194" edge="1">
          <mxGeometry relative="1" as="geometry" />
        </mxCell>
        <mxCell id="P8C8cs-CNO5VZVuL6oD0-63" value="Degree" style="whiteSpace=wrap;html=1;align=center;fontFamily=Courier New;fillColor=#e51400;fontColor=#ffffff;strokeColor=#B20000;" parent="1" vertex="1">
          <mxGeometry x="-50" y="30" width="100" height="40" as="geometry" />
        </mxCell>
        <mxCell id="P8C8cs-CNO5VZVuL6oD0-173" style="edgeStyle=orthogonalEdgeStyle;curved=1;rounded=0;orthogonalLoop=1;jettySize=auto;html=1;entryX=0.028;entryY=0.568;entryDx=0;entryDy=0;entryPerimeter=0;" parent="1" source="P8C8cs-CNO5VZVuL6oD0-12" target="P8C8cs-CNO5VZVuL6oD0-178" edge="1">
          <mxGeometry relative="1" as="geometry" />
        </mxCell>
        <mxCell id="P8C8cs-CNO5VZVuL6oD0-178" value="ref_job&lt;br&gt;m:m" style="shape=rhombus;perimeter=rhombusPerimeter;whiteSpace=wrap;html=1;align=center;fillColor=#647687;fontColor=#ffffff;strokeColor=#314354;" parent="1" vertex="1">
          <mxGeometry x="-400" y="950" width="120" height="60" as="geometry" />
        </mxCell>
        <mxCell id="P8C8cs-CNO5VZVuL6oD0-179" style="edgeStyle=orthogonalEdgeStyle;curved=1;rounded=0;orthogonalLoop=1;jettySize=auto;html=1;entryX=0.591;entryY=0.019;entryDx=0;entryDy=0;entryPerimeter=0;" parent="1" source="P8C8cs-CNO5VZVuL6oD0-178" target="P8C8cs-CNO5VZVuL6oD0-90" edge="1">
          <mxGeometry relative="1" as="geometry" />
        </mxCell>
        <mxCell id="P8C8cs-CNO5VZVuL6oD0-181" value="&lt;span style=&quot;font-family: &amp;quot;Courier New&amp;quot;;&quot;&gt;gives_mentorship&lt;/span&gt;&lt;div style=&quot;font-family: &amp;quot;Courier New&amp;quot;;&quot;&gt;m:m&lt;/div&gt;" style="shape=rhombus;perimeter=rhombusPerimeter;whiteSpace=wrap;html=1;align=center;fillColor=#647687;fontColor=#ffffff;strokeColor=#314354;" parent="1" vertex="1">
          <mxGeometry x="-50" y="830" width="120" height="60" as="geometry" />
        </mxCell>
        <mxCell id="P8C8cs-CNO5VZVuL6oD0-186" style="edgeStyle=orthogonalEdgeStyle;curved=1;rounded=0;orthogonalLoop=1;jettySize=auto;html=1;" parent="1" source="P8C8cs-CNO5VZVuL6oD0-182" target="P8C8cs-CNO5VZVuL6oD0-133" edge="1">
          <mxGeometry relative="1" as="geometry" />
        </mxCell>
        <mxCell id="P8C8cs-CNO5VZVuL6oD0-258" style="edgeStyle=orthogonalEdgeStyle;curved=1;rounded=0;orthogonalLoop=1;jettySize=auto;html=1;entryX=0.5;entryY=0;entryDx=0;entryDy=0;" parent="1" source="P8C8cs-CNO5VZVuL6oD0-182" target="P8C8cs-CNO5VZVuL6oD0-257" edge="1">
          <mxGeometry relative="1" as="geometry" />
        </mxCell>
        <mxCell id="P8C8cs-CNO5VZVuL6oD0-182" value="got_scholarships&lt;br&gt;m:m" style="shape=rhombus;perimeter=rhombusPerimeter;whiteSpace=wrap;html=1;align=center;fillColor=#647687;fontColor=#ffffff;strokeColor=#314354;" parent="1" vertex="1">
          <mxGeometry x="285" y="610" width="120" height="60" as="geometry" />
        </mxCell>
        <mxCell id="P8C8cs-CNO5VZVuL6oD0-185" style="edgeStyle=orthogonalEdgeStyle;curved=1;rounded=0;orthogonalLoop=1;jettySize=auto;html=1;entryX=0.925;entryY=1.045;entryDx=0;entryDy=0;entryPerimeter=0;" parent="1" source="P8C8cs-CNO5VZVuL6oD0-182" target="P8C8cs-CNO5VZVuL6oD0-7" edge="1">
          <mxGeometry relative="1" as="geometry" />
        </mxCell>
        <mxCell id="P8C8cs-CNO5VZVuL6oD0-187" value="got_awards&lt;div&gt;m:m&lt;br&gt;&lt;br&gt;&lt;/div&gt;" style="shape=rhombus;perimeter=rhombusPerimeter;whiteSpace=wrap;html=1;align=center;fillColor=#647687;fontColor=#ffffff;strokeColor=#314354;" parent="1" vertex="1">
          <mxGeometry x="285" y="470" width="120" height="60" as="geometry" />
        </mxCell>
        <mxCell id="P8C8cs-CNO5VZVuL6oD0-189" style="edgeStyle=orthogonalEdgeStyle;curved=1;rounded=0;orthogonalLoop=1;jettySize=auto;html=1;entryX=0.368;entryY=0.92;entryDx=0;entryDy=0;entryPerimeter=0;" parent="1" source="P8C8cs-CNO5VZVuL6oD0-187" target="P8C8cs-CNO5VZVuL6oD0-76" edge="1">
          <mxGeometry relative="1" as="geometry" />
        </mxCell>
        <mxCell id="P8C8cs-CNO5VZVuL6oD0-193" style="edgeStyle=orthogonalEdgeStyle;curved=1;rounded=0;orthogonalLoop=1;jettySize=auto;html=1;entryX=0.5;entryY=1;entryDx=0;entryDy=0;" parent="1" source="P8C8cs-CNO5VZVuL6oD0-191" target="P8C8cs-CNO5VZVuL6oD0-63" edge="1">
          <mxGeometry relative="1" as="geometry" />
        </mxCell>
        <mxCell id="P8C8cs-CNO5VZVuL6oD0-249" style="edgeStyle=orthogonalEdgeStyle;curved=1;rounded=0;orthogonalLoop=1;jettySize=auto;html=1;" parent="1" source="P8C8cs-CNO5VZVuL6oD0-191" edge="1">
          <mxGeometry relative="1" as="geometry">
            <mxPoint x="-140" y="119.99999999999977" as="targetPoint" />
          </mxGeometry>
        </mxCell>
        <mxCell id="P8C8cs-CNO5VZVuL6oD0-191" value="completed&lt;div&gt;m:m&lt;/div&gt;" style="shape=rhombus;perimeter=rhombusPerimeter;whiteSpace=wrap;html=1;align=center;fillColor=#647687;fontColor=#ffffff;strokeColor=#314354;" parent="1" vertex="1">
          <mxGeometry x="-78.75" y="130" width="120" height="60" as="geometry" />
        </mxCell>
        <mxCell id="P8C8cs-CNO5VZVuL6oD0-196" style="edgeStyle=orthogonalEdgeStyle;curved=1;rounded=0;orthogonalLoop=1;jettySize=auto;html=1;entryX=0.5;entryY=1;entryDx=0;entryDy=0;" parent="1" source="P8C8cs-CNO5VZVuL6oD0-194" target="P8C8cs-CNO5VZVuL6oD0-95" edge="1">
          <mxGeometry relative="1" as="geometry" />
        </mxCell>
        <mxCell id="P8C8cs-CNO5VZVuL6oD0-194" value="of&lt;br&gt;m:1" style="shape=rhombus;perimeter=rhombusPerimeter;whiteSpace=wrap;html=1;align=center;fillColor=#647687;fontColor=#ffffff;strokeColor=#314354;" parent="1" vertex="1">
          <mxGeometry x="50" y="-120" width="120" height="60" as="geometry" />
        </mxCell>
        <mxCell id="P8C8cs-CNO5VZVuL6oD0-200" value="does_research&lt;br&gt;m:m" style="shape=rhombus;perimeter=rhombusPerimeter;whiteSpace=wrap;html=1;align=center;fillColor=#647687;fontColor=#ffffff;strokeColor=#314354;" parent="1" vertex="1">
          <mxGeometry x="70" y="160" width="120" height="60" as="geometry" />
        </mxCell>
        <mxCell id="P8C8cs-CNO5VZVuL6oD0-203" style="edgeStyle=orthogonalEdgeStyle;curved=1;rounded=0;orthogonalLoop=1;jettySize=auto;html=1;entryX=0.132;entryY=1.013;entryDx=0;entryDy=0;entryPerimeter=0;" parent="1" source="P8C8cs-CNO5VZVuL6oD0-200" target="P8C8cs-CNO5VZVuL6oD0-88" edge="1">
          <mxGeometry relative="1" as="geometry" />
        </mxCell>
        <mxCell id="P8C8cs-CNO5VZVuL6oD0-211" style="edgeStyle=orthogonalEdgeStyle;curved=1;rounded=0;orthogonalLoop=1;jettySize=auto;html=1;entryX=0;entryY=0.75;entryDx=0;entryDy=0;" parent="1" source="P8C8cs-CNO5VZVuL6oD0-209" target="P8C8cs-CNO5VZVuL6oD0-99" edge="1">
          <mxGeometry relative="1" as="geometry" />
        </mxCell>
        <mxCell id="P8C8cs-CNO5VZVuL6oD0-209" value="has_so&lt;br&gt;1:m" style="shape=rhombus;perimeter=rhombusPerimeter;whiteSpace=wrap;html=1;align=center;fillColor=#647687;fontColor=#ffffff;strokeColor=#314354;" parent="1" vertex="1">
          <mxGeometry x="-170" y="670" width="120" height="60" as="geometry" />
        </mxCell>
        <mxCell id="P8C8cs-CNO5VZVuL6oD0-220" style="edgeStyle=orthogonalEdgeStyle;curved=1;rounded=0;orthogonalLoop=1;jettySize=auto;html=1;entryX=0;entryY=0.75;entryDx=0;entryDy=0;" parent="1" source="P8C8cs-CNO5VZVuL6oD0-217" target="P8C8cs-CNO5VZVuL6oD0-70" edge="1">
          <mxGeometry relative="1" as="geometry" />
        </mxCell>
        <mxCell id="P8C8cs-CNO5VZVuL6oD0-217" value="published&lt;br&gt;1:1" style="shape=rhombus;perimeter=rhombusPerimeter;whiteSpace=wrap;html=1;align=center;fillColor=#647687;fontColor=#ffffff;strokeColor=#314354;" parent="1" vertex="1">
          <mxGeometry x="690" y="240" width="120" height="60" as="geometry" />
        </mxCell>
        <mxCell id="P8C8cs-CNO5VZVuL6oD0-218" value="published&lt;br&gt;1:1" style="shape=rhombus;perimeter=rhombusPerimeter;whiteSpace=wrap;html=1;align=center;fillColor=#647687;fontColor=#ffffff;strokeColor=#314354;" parent="1" vertex="1">
          <mxGeometry x="770" y="470" width="120" height="60" as="geometry" />
        </mxCell>
        <mxCell id="P8C8cs-CNO5VZVuL6oD0-219" style="edgeStyle=orthogonalEdgeStyle;curved=1;rounded=0;orthogonalLoop=1;jettySize=auto;html=1;entryX=0.416;entryY=0.976;entryDx=0;entryDy=0;entryPerimeter=0;" parent="1" source="P8C8cs-CNO5VZVuL6oD0-218" target="P8C8cs-CNO5VZVuL6oD0-70" edge="1">
          <mxGeometry relative="1" as="geometry" />
        </mxCell>
        <mxCell id="P8C8cs-CNO5VZVuL6oD0-224" value="published&lt;br&gt;1:1" style="shape=rhombus;perimeter=rhombusPerimeter;whiteSpace=wrap;html=1;align=center;fillColor=#647687;fontColor=#ffffff;strokeColor=#314354;" parent="1" vertex="1">
          <mxGeometry x="760" y="80" width="120" height="60" as="geometry" />
        </mxCell>
        <mxCell id="P8C8cs-CNO5VZVuL6oD0-225" style="edgeStyle=orthogonalEdgeStyle;curved=1;rounded=0;orthogonalLoop=1;jettySize=auto;html=1;entryX=0.606;entryY=0.055;entryDx=0;entryDy=0;entryPerimeter=0;" parent="1" source="P8C8cs-CNO5VZVuL6oD0-224" target="P8C8cs-CNO5VZVuL6oD0-70" edge="1">
          <mxGeometry relative="1" as="geometry" />
        </mxCell>
        <mxCell id="P8C8cs-CNO5VZVuL6oD0-228" value="dept" style="ellipse;shape=doubleEllipse;margin=3;whiteSpace=wrap;html=1;align=center;" parent="1" vertex="1">
          <mxGeometry x="-78.75" y="-310" width="100" height="40" as="geometry" />
        </mxCell>
        <mxCell id="P8C8cs-CNO5VZVuL6oD0-236" style="edgeStyle=orthogonalEdgeStyle;curved=1;rounded=0;orthogonalLoop=1;jettySize=auto;html=1;entryX=1;entryY=0.5;entryDx=0;entryDy=0;" parent="1" source="P8C8cs-CNO5VZVuL6oD0-233" target="P8C8cs-CNO5VZVuL6oD0-95" edge="1">
          <mxGeometry relative="1" as="geometry" />
        </mxCell>
        <mxCell id="P8C8cs-CNO5VZVuL6oD0-233" value="of&lt;br&gt;m:1" style="shape=rhombus;perimeter=rhombusPerimeter;whiteSpace=wrap;html=1;align=center;fillColor=#647687;fontColor=#ffffff;strokeColor=#314354;" parent="1" vertex="1">
          <mxGeometry x="175" y="-160" width="120" height="60" as="geometry" />
        </mxCell>
        <mxCell id="P8C8cs-CNO5VZVuL6oD0-238" value="offered_degrees" style="ellipse;whiteSpace=wrap;html=1;align=center;dashed=1;" parent="1" vertex="1">
          <mxGeometry x="-78.75" y="-260" width="100" height="40" as="geometry" />
        </mxCell>
        <mxCell id="P8C8cs-CNO5VZVuL6oD0-239" value="degree_name" style="ellipse;whiteSpace=wrap;html=1;align=center;fontFamily=Courier New;fontSize=12;" parent="1" vertex="1">
          <mxGeometry x="-218.75" y="-140" width="140" height="40" as="geometry" />
        </mxCell>
        <mxCell id="P8C8cs-CNO5VZVuL6oD0-241" style="edgeStyle=orthogonalEdgeStyle;curved=1;rounded=0;orthogonalLoop=1;jettySize=auto;html=1;entryX=0.976;entryY=0.713;entryDx=0;entryDy=0;entryPerimeter=0;" parent="1" source="P8C8cs-CNO5VZVuL6oD0-63" target="P8C8cs-CNO5VZVuL6oD0-239" edge="1">
          <mxGeometry relative="1" as="geometry" />
        </mxCell>
        <mxCell id="P8C8cs-CNO5VZVuL6oD0-242" style="edgeStyle=orthogonalEdgeStyle;curved=1;rounded=0;orthogonalLoop=1;jettySize=auto;html=1;entryX=0.5;entryY=1;entryDx=0;entryDy=0;endArrow=none;endFill=0;fontFamily=Courier New;exitX=0.068;exitY=0.669;exitDx=0;exitDy=0;exitPerimeter=0;" parent="1" source="P8C8cs-CNO5VZVuL6oD0-122" target="P8C8cs-CNO5VZVuL6oD0-246" edge="1">
          <mxGeometry relative="1" as="geometry">
            <mxPoint x="-220" y="-355.24" as="sourcePoint" />
          </mxGeometry>
        </mxCell>
        <mxCell id="P8C8cs-CNO5VZVuL6oD0-243" style="edgeStyle=orthogonalEdgeStyle;curved=1;rounded=0;orthogonalLoop=1;jettySize=auto;html=1;entryX=1;entryY=0.5;entryDx=0;entryDy=0;endArrow=none;endFill=0;fontFamily=Courier New;exitX=0;exitY=0.5;exitDx=0;exitDy=0;" parent="1" source="P8C8cs-CNO5VZVuL6oD0-122" target="P8C8cs-CNO5VZVuL6oD0-244" edge="1">
          <mxGeometry relative="1" as="geometry">
            <Array as="points">
              <mxPoint x="-190" y="-390" />
              <mxPoint x="-190" y="-455" />
            </Array>
            <mxPoint x="-190" y="-373.24" as="sourcePoint" />
          </mxGeometry>
        </mxCell>
        <mxCell id="P8C8cs-CNO5VZVuL6oD0-244" value="city" style="ellipse;whiteSpace=wrap;html=1;align=center;fontFamily=Courier New;" parent="1" vertex="1">
          <mxGeometry x="-330" y="-475.24" width="100" height="40" as="geometry" />
        </mxCell>
        <mxCell id="P8C8cs-CNO5VZVuL6oD0-245" value="zip" style="ellipse;whiteSpace=wrap;html=1;align=center;fontFamily=Courier New;" parent="1" vertex="1">
          <mxGeometry x="-330" y="-525.24" width="100" height="40" as="geometry" />
        </mxCell>
        <mxCell id="P8C8cs-CNO5VZVuL6oD0-246" value="district" style="ellipse;whiteSpace=wrap;html=1;align=center;fontFamily=Courier New;" parent="1" vertex="1">
          <mxGeometry x="-330" y="-425.24" width="100" height="40" as="geometry" />
        </mxCell>
        <mxCell id="P8C8cs-CNO5VZVuL6oD0-247" style="edgeStyle=orthogonalEdgeStyle;curved=1;rounded=0;orthogonalLoop=1;jettySize=auto;html=1;entryX=0;entryY=0.5;entryDx=0;entryDy=0;endArrow=none;endFill=0;fontFamily=Courier New;" parent="1" source="P8C8cs-CNO5VZVuL6oD0-245" target="P8C8cs-CNO5VZVuL6oD0-122" edge="1">
          <mxGeometry relative="1" as="geometry">
            <mxPoint x="-163" y="-376.24" as="targetPoint" />
          </mxGeometry>
        </mxCell>
        <mxCell id="P8C8cs-CNO5VZVuL6oD0-251" value="cgpa" style="ellipse;whiteSpace=wrap;html=1;align=center;dashed=1;" parent="1" vertex="1">
          <mxGeometry x="-190" y="90" width="100" height="40" as="geometry" />
        </mxCell>
        <mxCell id="P8C8cs-CNO5VZVuL6oD0-252" value="&lt;span style=&quot;color: rgb(18, 18, 18);&quot;&gt;scholarship_id&lt;/span&gt;" style="ellipse;whiteSpace=wrap;html=1;align=center;fontFamily=Courier New;" parent="1" vertex="1">
          <mxGeometry x="820" y="590" width="150" height="40" as="geometry" />
        </mxCell>
        <mxCell id="P8C8cs-CNO5VZVuL6oD0-253" value="s_name" style="ellipse;whiteSpace=wrap;html=1;align=center;fontFamily=Courier New;" parent="1" vertex="1">
          <mxGeometry x="820" y="640" width="100" height="40" as="geometry" />
        </mxCell>
        <mxCell id="P8C8cs-CNO5VZVuL6oD0-254" value="amount" style="ellipse;whiteSpace=wrap;html=1;align=center;fontFamily=Courier New;" parent="1" vertex="1">
          <mxGeometry x="820" y="690" width="100" height="40" as="geometry" />
        </mxCell>
        <mxCell id="P8C8cs-CNO5VZVuL6oD0-255" value="type" style="ellipse;whiteSpace=wrap;html=1;align=center;fontFamily=Courier New;" parent="1" vertex="1">
          <mxGeometry x="820" y="740" width="100" height="40" as="geometry" />
        </mxCell>
        <mxCell id="P8C8cs-CNO5VZVuL6oD0-257" value="issued date" style="ellipse;whiteSpace=wrap;html=1;align=center;dashed=1;" parent="1" vertex="1">
          <mxGeometry x="315" y="700" width="100" height="40" as="geometry" />
        </mxCell>
        <mxCell id="P8C8cs-CNO5VZVuL6oD0-259" style="edgeStyle=orthogonalEdgeStyle;curved=1;rounded=0;orthogonalLoop=1;jettySize=auto;html=1;entryX=0.262;entryY=1.025;entryDx=0;entryDy=0;entryPerimeter=0;" parent="1" source="P8C8cs-CNO5VZVuL6oD0-187" target="P8C8cs-CNO5VZVuL6oD0-129" edge="1">
          <mxGeometry relative="1" as="geometry" />
        </mxCell>
        <mxCell id="P8C8cs-CNO5VZVuL6oD0-260" value="cited_by" style="ellipse;whiteSpace=wrap;html=1;align=center;" parent="1" vertex="1">
          <mxGeometry x="305" y="110" width="100" height="40" as="geometry" />
        </mxCell>
        <mxCell id="P8C8cs-CNO5VZVuL6oD0-261" value="type [part time / ..]" style="ellipse;whiteSpace=wrap;html=1;align=center;fontFamily=Courier New;" parent="1" vertex="1">
          <mxGeometry x="-690" y="415" width="100" height="40" as="geometry" />
        </mxCell>
        <mxCell id="P8C8cs-CNO5VZVuL6oD0-262" value="company&lt;div&gt;&lt;br&gt;&lt;/div&gt;" style="ellipse;whiteSpace=wrap;html=1;align=center;fontFamily=Courier New;" parent="1" vertex="1">
          <mxGeometry x="-690" y="365" width="100" height="40" as="geometry" />
        </mxCell>
        <mxCell id="P8C8cs-CNO5VZVuL6oD0-263" value="role" style="ellipse;whiteSpace=wrap;html=1;align=center;fontFamily=Courier New;" parent="1" vertex="1">
          <mxGeometry x="-690" y="315" width="100" height="40" as="geometry" />
        </mxCell>
        <mxCell id="P8C8cs-CNO5VZVuL6oD0-264" value="cjob_id" style="ellipse;whiteSpace=wrap;html=1;align=center;fontFamily=Courier New;" parent="1" vertex="1">
          <mxGeometry x="-690" y="265" width="100" height="40" as="geometry" />
        </mxCell>
        <mxCell id="P8C8cs-CNO5VZVuL6oD0-269" value="type [part time / ..]" style="ellipse;whiteSpace=wrap;html=1;align=center;fontFamily=Courier New;" parent="1" vertex="1">
          <mxGeometry x="-130" y="1230" width="100" height="40" as="geometry" />
        </mxCell>
        <mxCell id="P8C8cs-CNO5VZVuL6oD0-270" value="company&lt;div&gt;&lt;br&gt;&lt;/div&gt;" style="ellipse;whiteSpace=wrap;html=1;align=center;fontFamily=Courier New;" parent="1" vertex="1">
          <mxGeometry x="-130" y="1180" width="100" height="40" as="geometry" />
        </mxCell>
        <mxCell id="P8C8cs-CNO5VZVuL6oD0-271" value="role" style="ellipse;whiteSpace=wrap;html=1;align=center;fontFamily=Courier New;" parent="1" vertex="1">
          <mxGeometry x="-130" y="1130" width="100" height="40" as="geometry" />
        </mxCell>
        <mxCell id="P8C8cs-CNO5VZVuL6oD0-272" value="ljob_id" style="ellipse;whiteSpace=wrap;html=1;align=center;fontFamily=Courier New;" parent="1" vertex="1">
          <mxGeometry x="-130" y="1080" width="100" height="40" as="geometry" />
        </mxCell>
        <mxCell id="P8C8cs-CNO5VZVuL6oD0-273" value="salary" style="ellipse;whiteSpace=wrap;html=1;align=center;fontFamily=Courier New;" parent="1" vertex="1">
          <mxGeometry x="-130" y="1280" width="100" height="40" as="geometry" />
        </mxCell>
        <mxCell id="P8C8cs-CNO5VZVuL6oD0-274" value="isNegotiable" style="ellipse;whiteSpace=wrap;html=1;align=center;fontFamily=Courier New;" parent="1" vertex="1">
          <mxGeometry x="-130" y="1330" width="100" height="40" as="geometry" />
        </mxCell>
        <mxCell id="P8C8cs-CNO5VZVuL6oD0-275" value="isAcceptingMentees" style="ellipse;whiteSpace=wrap;html=1;align=center;fontFamily=Courier New;" parent="1" vertex="1">
          <mxGeometry x="-850" y="950" width="200" height="40" as="geometry" />
        </mxCell>
      </root>
    </mxGraphModel>
  </diagram>
  <diagram name="Page-2" id="8_qCjuz-gAzukcDPN1oX">
    <mxGraphModel dx="1896" dy="797" grid="1" gridSize="10" guides="1" tooltips="1" connect="1" arrows="1" fold="1" page="1" pageScale="1" pageWidth="850" pageHeight="1100" math="0" shadow="0">
      <root>
        <mxCell id="0" />
        <mxCell id="1" parent="0" />
      </root>
    </mxGraphModel>
  </diagram>
</mxfile>
